<?xml version="1.0" encoding="iso-8859-1"?>
<!-- Generator: Adobe Illustrator 19.0.0, SVG Export Plug-In . SVG Version: 6.00 Build 0)  -->
<svg version="1.1" id="Layer_1" xmlns="http://www.w3.org/2000/svg" xmlns:xlink="http://www.w3.org/1999/xlink" x="0px" y="0px"
	 viewBox="0 0 512 512" style="enable-background:new 0 0 512 512;" xml:space="preserve">
<g>
	<g>
		<g>
			<path d="M409.6,163.84h-35.586V38.4c0-21.174-17.226-38.4-38.4-38.4s-38.4,17.226-38.4,38.4v125.44h-82.427V38.4
				c0-21.174-17.226-38.4-38.4-38.4s-38.4,17.226-38.4,38.4v125.44H102.4c-5.655,0-10.24,4.585-10.24,10.24v159.354
				c0,36.352,29.574,65.926,65.926,65.926h18.554v35.84c0,5.655,4.585,10.24,10.24,10.24h33.28v56.32
				c0,5.655,4.585,10.24,10.24,10.24h51.2c5.654,0,10.24-4.585,10.24-10.24v-56.32h33.28c5.655,0,10.24-4.585,10.24-10.24v-35.84
				h18.555c36.351,0,65.925-29.574,65.925-65.926V174.08C419.84,168.425,415.255,163.84,409.6,163.84z M317.694,38.4
				c0-9.881,8.039-17.92,17.92-17.92s17.92,8.039,17.92,17.92v125.44h-35.84V38.4z M158.467,38.4c0-9.881,8.039-17.92,17.92-17.92
				s17.92,8.039,17.92,17.92v125.44h-35.84V38.4z M271.36,491.52h-30.72v-46.08h30.72V491.52z M314.88,424.96H197.12v-25.6h117.76
				V424.96z M399.36,211.701h-56.578c-5.655,0-10.24,4.585-10.24,10.24s4.586,10.24,10.24,10.24h56.578v101.253
				c0,25.059-20.387,45.446-45.445,45.446H158.086c-25.059,0-45.446-20.387-45.446-45.446V232.181H256
				c5.655,0,10.24-4.585,10.24-10.24s-4.585-10.24-10.24-10.24H112.64V184.32h286.72V211.701z"/>
			<path d="M298.75,232.181h2.56c5.655,0,10.24-4.585,10.24-10.24s-4.584-10.24-10.24-10.24h-2.56c-5.655,0-10.24,4.585-10.24,10.24
				S293.095,232.181,298.75,232.181z"/>
		</g>
	</g>
</g>
<g>
</g>
<g>
</g>
<g>
</g>
<g>
</g>
<g>
</g>
<g>
</g>
<g>
</g>
<g>
</g>
<g>
</g>
<g>
</g>
<g>
</g>
<g>
</g>
<g>
</g>
<g>
</g>
<g>
</g>
</svg>
